HIERARCHY
ROOT joint_Root
{
	OFFSET 0.0 0.0 0.0
	CHANNELS 6 Xposition Yposition Zposition Zrotation Xrotation Yrotation 
	JOINT Hips
	{
		OFFSET -17.1583 93.1646 452.98
		CHANNELS 6 Xposition Yposition Zposition Zrotation Xrotation Yrotation 
		JOINT Spine
		{
			OFFSET 15.7357 0.0 0.0
			CHANNELS 6 Xposition Yposition Zposition Zrotation Xrotation Yrotation 
			JOINT Chest
			{
				OFFSET 8.98455 -0.406207 0.0
				CHANNELS 6 Xposition Yposition Zposition Zrotation Xrotation Yrotation 
				JOINT Neck
				{
					OFFSET 16.3773 0.0 0.0
					CHANNELS 6 Xposition Yposition Zposition Zrotation Xrotation Yrotation 
					JOINT Head
					{
						OFFSET 6.45672 0.0 0.0
						CHANNELS 6 Xposition Yposition Zposition Zrotation Xrotation Yrotation 
						End Site
						{
							OFFSET 0.0 0.0 0.0
						}
					}
				}
				JOINT Shoulder_L
				{
					OFFSET 12.9942 -0.242716 4.98039
					CHANNELS 6 Xposition Yposition Zposition Zrotation Xrotation Yrotation 
					JOINT UpperArm_L
					{
						OFFSET 5.34809 0.0 0.0
						CHANNELS 6 Xposition Yposition Zposition Zrotation Xrotation Yrotation 
						JOINT LowerArm_L
						{
							OFFSET 24.3286 1.87007e-05 0.0
							CHANNELS 6 Xposition Yposition Zposition Zrotation Xrotation Yrotation 
							JOINT Hand_L
							{
								OFFSET 22.2916 0.0 0.0
								CHANNELS 6 Xposition Yposition Zposition Zrotation Xrotation Yrotation 
								End Site
								{
									OFFSET 0.0 0.0 0.0
								}
							}
						}
					}
				}
				JOINT Shoulder_R
				{
					OFFSET 12.9945 -0.242716 -4.98039
					CHANNELS 6 Xposition Yposition Zposition Zrotation Xrotation Yrotation 
					JOINT UpperArm_R
					{
						OFFSET -5.34813 0.0 0.0
						CHANNELS 6 Xposition Yposition Zposition Zrotation Xrotation Yrotation 
						JOINT LowerArm_R
						{
							OFFSET -24.3289 0.000322201 0.0
							CHANNELS 6 Xposition Yposition Zposition Zrotation Xrotation Yrotation 
							JOINT Hand_R
							{
								OFFSET -22.2915 -0.000108084 0.0
								CHANNELS 6 Xposition Yposition Zposition Zrotation Xrotation Yrotation 
								End Site
								{
									OFFSET 0.0 0.0 0.0
								}
							}
						}
					}
				}
			}
		}
		JOINT UpperLeg_L
		{
			OFFSET -2.19248 -6.46944 0.0
			CHANNELS 6 Xposition Yposition Zposition Zrotation Xrotation Yrotation 
			JOINT LowerLeg_L
			{
				OFFSET 39.0811 0.0 -1.23785e-05
				CHANNELS 6 Xposition Yposition Zposition Zrotation Xrotation Yrotation 
				JOINT Foot_L
				{
					OFFSET 40.9854 0.0 -1.26872e-05
					CHANNELS 6 Xposition Yposition Zposition Zrotation Xrotation Yrotation 
					JOINT Toes_L
					{
						OFFSET 11.7543 0.0 0.0
						CHANNELS 6 Xposition Yposition Zposition Zrotation Xrotation Yrotation 
						End Site
						{
							OFFSET 0.0 0.0 0.0
						}
					}
				}
			}
		}
		JOINT UpperLeg_R
		{
			OFFSET -2.19251 6.46944 0.0
			CHANNELS 6 Xposition Yposition Zposition Zrotation Xrotation Yrotation 
			JOINT LowerLeg_R
			{
				OFFSET -39.0811 -0.00228153 -0.0401928
				CHANNELS 6 Xposition Yposition Zposition Zrotation Xrotation Yrotation 
				JOINT Foot_R
				{
					OFFSET -40.9854 0.0 0.0
					CHANNELS 6 Xposition Yposition Zposition Zrotation Xrotation Yrotation 
					JOINT Toes_R
					{
						OFFSET -11.7543 0.0 0.0
						CHANNELS 6 Xposition Yposition Zposition Zrotation Xrotation Yrotation 
						End Site
						{
							OFFSET 0.0 0.0 0.0
						}
					}
				}
			}
		}
	}
}
MOTION
Frames:	7
Frame Time:	0.0333333
0.000000 0.000000 0.000000 0.000000 0.000000 -0.000000 -4.380970 91.392200 -2.103820 80.660100 -3.509060 4.996940 15.735700 0.000005 -0.000001 74.763200 86.251800 -70.021400 8.984550 -0.406207 -0.000000 -0.419780 -2.307790 9.471270 16.377300 -0.000001 -0.000001 14.710400 4.944920 7.439130 6.456720 -0.000001 -0.000000 4.820560 8.303440 5.494330 12.994200 -0.242716 4.980390 -92.007600 5.695080 -70.545000 5.348090 -0.000007 -0.000001 -73.509800 -16.344600 2.094600 24.328600 0.000019 0.000005 38.783600 -40.896000 -129.171000 22.291600 -0.000001 0.000005 57.718000 4.961400 8.129570 12.994500 -0.242716 -4.980390 87.978200 5.609540 -70.143400 -5.348130 -0.000001 -0.000004 -69.287000 -9.156320 -7.713140 -24.328900 0.000322 -0.000009 14.536900 -18.472000 -140.702000 -22.291500 -0.000108 -0.000004 57.267300 5.663280 -16.451100 -2.192480 -6.469440 -0.000000 -167.339000 0.350106 -5.632750 39.081100 -0.000007 -0.000012 0.541949 -0.824184 33.328900 40.985400 -0.000006 -0.000013 -0.082707 7.744270 -78.279700 11.754300 -0.000000 0.000003 0.000568 0.157449 -10.191200 -2.192510 6.469440 -0.000001 -166.364000 7.910770 -177.155000 -39.081100 -0.002282 -0.040193 0.146842 -0.457632 17.411900 -40.985400 0.000008 0.000006 6.242060 1.851390 -70.886000 -11.754300 -0.000006 -0.000006 -0.010197 0.272769 -5.491120
0.000000 0.000000 0.000000 0.000000 0.000000 -0.000000 -4.365210 91.395400 -2.104120 80.660800 -3.481140 4.983690 15.735700 0.000005 -0.000001 74.659800 86.259500 -69.922600 8.984550 -0.406207 -0.000000 -0.437930 -2.317190 9.461670 16.377300 -0.000001 -0.000001 14.709100 4.911610 7.502480 6.456720 -0.000001 -0.000000 4.853050 8.279310 5.527050 12.994200 -0.242716 4.980390 -91.992700 5.656320 -70.556500 5.348090 -0.000007 -0.000001 -73.559000 -16.415900 2.088430 24.328600 0.000019 0.000005 38.734000 -40.915100 -129.232000 22.291600 -0.000001 0.000005 57.685900 4.962790 8.100730 12.994500 -0.242716 -4.980390 87.981500 5.601390 -70.146200 -5.348130 -0.000001 -0.000004 -69.323300 -9.040860 -7.741970 -24.328900 0.000322 -0.000009 14.539300 -18.532400 -140.786000 -22.291500 -0.000108 -0.000004 57.475600 5.662830 -16.396100 -2.192480 -6.469440 -0.000000 -167.346000 0.388083 -5.652490 39.081100 -0.000007 -0.000012 0.532780 -0.810873 33.308300 40.985400 -0.000006 -0.000013 -0.072250 7.745990 -78.202400 11.754300 -0.000000 0.000003 0.000608 0.156675 -10.222600 -2.192510 6.469440 -0.000001 -166.383000 7.958760 -177.174000 -39.081100 -0.002282 -0.040193 0.145810 -0.454517 17.405600 -40.985400 0.000008 0.000006 6.233700 1.879330 -70.878900 -11.754300 -0.000006 -0.000006 -0.010342 0.273841 -5.447260
0.000000 0.000000 0.000000 0.000000 0.000000 -0.000000 -4.341490 91.397500 -2.111760 80.691900 -3.484500 4.986440 15.735700 0.000005 -0.000001 74.531800 86.262400 -69.802000 8.984550 -0.406207 -0.000000 -0.447488 -2.331640 9.446750 16.377300 -0.000001 -0.000001 14.744400 4.906070 7.518070 6.456720 -0.000001 -0.000000 4.840500 8.224970 5.543270 12.994200 -0.242716 4.980390 -91.992700 5.646700 -70.525700 5.348090 -0.000007 -0.000001 -73.550400 -16.482300 2.095680 24.328600 0.000019 0.000005 38.573300 -40.842400 -129.352000 22.291600 -0.000001 0.000005 57.660000 4.968080 7.990720 12.994500 -0.242716 -4.980390 87.986900 5.581580 -70.130600 -5.348130 -0.000001 -0.000004 -69.336800 -8.927880 -7.840550 -24.328900 0.000322 -0.000009 14.536600 -18.551800 -140.819000 -22.291500 -0.000108 -0.000004 57.517700 5.662360 -16.338700 -2.192480 -6.469440 -0.000000 -167.396000 0.407809 -5.651130 39.081100 -0.000007 -0.000012 0.530437 -0.807722 33.294800 40.985400 -0.000006 -0.000013 -0.063246 7.725900 -78.203400 11.754300 -0.000000 0.000003 0.000610 0.156625 -10.224600 -2.192510 6.469440 -0.000001 -166.424000 7.918800 -177.191000 -39.081100 -0.002282 -0.040193 0.146759 -0.456530 17.441900 -40.985400 0.000008 0.000006 6.213130 1.854500 -70.892700 -11.754300 -0.000006 -0.000006 -0.010290 0.273458 -5.462900
0.000000 0.000000 0.000000 0.000000 0.000000 -0.000000 -4.321050 91.398100 -2.132740 80.677500 -3.473510 4.939470 15.735700 0.000005 -0.000001 74.429600 86.273100 -69.704000 8.984550 -0.406207 -0.000000 -0.471550 -2.339420 9.437970 16.377300 -0.000001 -0.000001 14.686500 4.869760 7.546780 6.456720 -0.000001 -0.000000 4.896490 8.228990 5.603640 12.994200 -0.242716 4.980390 -91.973800 5.584930 -70.500600 5.348090 -0.000007 -0.000001 -73.640300 -16.426800 2.007770 24.328600 0.000019 0.000005 38.377500 -40.800500 -129.526000 22.291600 -0.000001 0.000005 57.620700 4.958130 8.197080 12.994500 -0.242716 -4.980390 87.986100 5.581760 -70.124500 -5.348130 -0.000001 -0.000004 -69.376200 -8.847890 -7.916430 -24.328900 0.000322 -0.000009 14.535300 -18.564800 -140.841000 -22.291500 -0.000108 -0.000004 57.487800 5.662070 -16.302600 -2.192480 -6.469440 -0.000000 -167.401000 0.418816 -5.720150 39.081100 -0.000007 -0.000012 0.535119 -0.814254 33.314000 40.985400 -0.000006 -0.000013 -0.046698 7.728140 -78.197000 11.754300 -0.000000 0.000003 0.000514 0.158475 -10.149500 -2.192510 6.469440 -0.000001 -166.430000 7.969110 -177.271000 -39.081100 -0.002282 -0.040193 0.145969 -0.453395 17.464400 -40.985400 0.000008 0.000006 6.209270 1.915200 -70.854600 -11.754300 -0.000006 -0.000006 -0.009961 0.271011 -5.563020
0.000000 0.000000 0.000000 0.000000 0.000000 -0.000000 -4.300390 91.404200 -2.131240 80.692900 -3.484100 4.991180 15.735700 0.000005 -0.000001 74.563300 86.266200 -69.836800 8.984550 -0.406207 -0.000000 -0.453985 -2.325710 9.440070 16.377300 -0.000001 -0.000001 14.737600 4.885550 7.573300 6.456720 -0.000001 -0.000000 4.882790 8.164670 5.553110 12.994200 -0.242716 4.980390 -91.978100 5.615300 -70.558300 5.348090 -0.000007 -0.000001 -73.640600 -16.535200 1.938500 24.328600 0.000019 0.000005 38.404900 -40.848600 -129.525000 22.291600 -0.000001 0.000005 57.636000 4.955110 8.259680 12.994500 -0.242716 -4.980390 87.988600 5.577770 -70.133600 -5.348130 -0.000001 -0.000004 -69.336200 -8.777330 -7.921890 -24.328900 0.000322 -0.000009 14.481200 -18.512800 -140.874000 -22.291500 -0.000108 -0.000004 57.547500 5.663520 -16.481700 -2.192480 -6.469440 -0.000000 -167.438000 0.426883 -5.653230 39.081100 -0.000007 -0.000012 0.536350 -0.816895 33.289400 40.985400 -0.000006 -0.000013 -0.051165 7.670740 -78.223800 11.754300 -0.000000 0.000003 0.000565 0.157493 -10.189400 -2.192510 6.469440 -0.000001 -166.456000 7.924710 -177.210000 -39.081100 -0.002282 -0.040193 0.146047 -0.454137 17.446500 -40.985400 0.000008 0.000006 6.184730 1.862970 -70.857000 -11.754300 -0.000006 -0.000006 -0.010147 0.272398 -5.506270
0.000000 0.000000 0.000000 0.000000 0.000000 -0.000000 -4.284240 91.406200 -2.151820 80.686800 -3.459890 4.955060 15.735700 0.000005 -0.000001 74.433700 86.273900 -69.704900 8.984550 -0.406207 -0.000000 -0.472757 -2.338780 9.444180 16.377300 -0.000001 -0.000001 14.699400 4.858740 7.588410 6.456720 -0.000001 -0.000000 4.925730 8.161320 5.531110 12.994200 -0.242716 4.980390 -91.974400 5.600130 -70.543900 5.348090 -0.000007 -0.000001 -73.719000 -16.536700 1.866920 24.328600 0.000019 0.000005 38.483300 -40.898200 -129.474000 22.291600 -0.000001 0.000005 57.625300 4.951640 8.331100 12.994500 -0.242716 -4.980390 87.992700 5.568180 -70.139900 -5.348130 -0.000001 -0.000004 -69.319800 -8.672400 -7.926840 -24.328900 0.000322 -0.000009 14.458700 -18.479500 -140.871000 -22.291500 -0.000108 -0.000004 57.579800 5.664090 -16.554300 -2.192480 -6.469440 -0.000000 -167.449000 0.448052 -5.719550 39.081100 -0.000007 -0.000012 0.535787 -0.815678 33.301000 40.985400 -0.000006 -0.000013 -0.045180 7.649380 -78.201100 11.754300 -0.000000 0.000003 0.000526 0.158236 -10.159300 -2.192510 6.469440 -0.000001 -166.460000 7.978470 -177.262000 -39.081100 -0.002282 -0.040193 0.146535 -0.455691 17.446500 -40.985400 0.000008 0.000006 6.186220 1.908920 -70.848500 -11.754300 -0.000006 -0.000006 -0.010013 0.271403 -5.546970
0.000000 0.000000 0.000000 0.000000 0.000000 -0.000000 -4.267590 91.403600 -2.154390 80.680600 -3.473700 4.998380 15.735700 0.000005 -0.000001 74.457200 86.258900 -69.723200 8.984550 -0.406207 -0.000000 -0.442757 -2.342990 9.455070 16.377300 -0.000001 -0.000001 14.710900 4.857670 7.544020 6.456720 -0.000001 -0.000000 4.866690 8.131310 5.559270 12.994200 -0.242716 4.980390 -91.984200 5.623500 -70.529200 5.348090 -0.000007 -0.000001 -73.687100 -16.495100 1.876450 24.328600 0.000019 0.000005 38.237900 -40.747700 -129.636000 22.291600 -0.000001 0.000005 57.630900 4.956390 8.233230 12.994500 -0.242716 -4.980390 87.995200 5.565990 -70.155500 -5.348130 -0.000001 -0.000004 -69.300100 -8.569580 -7.921270 -24.328900 0.000322 -0.000009 14.482800 -18.485700 -140.831000 -22.291500 -0.000108 -0.000004 57.568600 5.663420 -16.469400 -2.192480 -6.469440 -0.000000 -167.453000 0.431301 -5.690690 39.081100 -0.000007 -0.000012 0.538790 -0.819511 33.324600 40.985400 -0.000006 -0.000013 -0.027480 7.664550 -78.210000 11.754300 -0.000000 0.000003 0.000513 0.158481 -10.149300 -2.192510 6.469440 -0.000001 -166.455000 7.917040 -177.241000 -39.081100 -0.002282 -0.040193 0.147517 -0.457740 17.484900 -40.985400 0.000008 0.000006 6.161780 1.827770 -70.870300 -11.754300 -0.000006 -0.000006 -0.010129 0.272262 -5.511830
